<?xml version="1.0" encoding="utf-8"?>
<svg width="161px" height="248px" viewBox="0 0 161 248" version="1.1" xmlns:xlink="http://www.w3.org/1999/xlink" xmlns="http://www.w3.org/2000/svg">
  <desc>Created with Lunacy</desc>
  <g id="face" transform="translate(5.324951 5.324997)">
    <path d="M73.7417 0.00019247C61.0533 -0.018909 36.3039 5.69338 21.528 21.744C14.0088 29.9117 1.3146 47.4751 0.0376271 88.2349C-0.541313 106.716 5.6649 155.854 11.459 173.524C15.5092 185.877 42.1116 222.526 61.0822 233.4C66.4448 236.473 73.6821 236.392 74.9379 236.392C76.2638 236.297 83.1138 236.473 88.4758 233.4C107.446 222.526 133.539 185.697 138.099 173.524C143.007 160.424 150.1 106.716 149.52 88.2349C148.243 47.4751 135.549 29.9117 128.03 21.744C113.254 5.69338 88.6503 -0.0383053 75.8552 0.00019247C75.0222 0.00266859 73.7417 0.00019247 73.7417 0.00019247Z" id="Path" fill="none" stroke="#4CA585" stroke-width="10.65" stroke-linejoin="round" />
  </g>
</svg>