<?xml version="1.0" encoding="utf-8"?>
<svg width="269px" height="266px" viewBox="0 0 269 266" version="1.1" xmlns:xlink="http://www.w3.org/1999/xlink" xmlns="http://www.w3.org/2000/svg">
  <desc>Created with Lunacy</desc>
  <g id="PhotoGallery">
    <path d="M10.2401 0C4.60004 0 0 4.61127 0 10.2651L0 174.507C0 180.16 4.60004 184.772 10.2401 184.772L174.082 184.772C179.722 184.772 184.322 180.16 184.322 174.507L184.322 10.2651C184.322 4.61127 179.722 0 174.082 0L10.2401 0ZM20.4802 20.5302L163.842 20.5302L163.842 143.711L20.4802 143.711L20.4802 20.5302ZM194.562 50.6839L194.562 29.8329L226.562 35.2864C232.122 36.2487 235.842 41.5817 234.882 47.1552L207.362 209.151C206.446 214.188 200.25 218.347 195.522 217.492L65.6005 195.037L174.082 195.037C185.362 195.037 194.562 185.854 194.562 174.507L194.562 161.675L213.122 53.8918L194.562 50.6839ZM92.1609 40.4189C80.3606 40.4189 70.4008 48.5588 70.4008 63.836C70.4008 73.8204 74.8406 83.8851 80.9607 90.1403C83.3607 96.3957 79.2807 98.8015 78.4009 99.1222C66.0407 103.613 51.5205 111.914 51.5205 119.973L51.5205 133.125L132.801 133.125L132.801 119.973C132.801 111.673 118.241 103.413 105.281 99.1222C104.681 98.9219 101.001 97.2777 103.361 90.1403C109.441 83.8851 114.241 73.7802 114.241 63.836C114.241 48.5588 103.961 40.4189 92.1609 40.4189ZM236.687 102.405L240.65 82.4642L261.626 88.7819C267.042 90.487 269.795 96.3874 268.096 101.775L219.922 258.547C218.222 263.935 212.31 267.058 206.936 265.357L50.5803 216.8C45.203 215.138 42.1714 209.178 43.7916 203.784L46.3786 199.724Q183.224 224.843 194.469 226.927C205.714 229.012 213.36 223.679 215.327 216.8C216.638 212.214 226.766 175.065 245.712 105.355L236.687 102.405Z" id="Shape" fill="#283F5C" fill-rule="evenodd" stroke="none" />
  </g>
</svg>